<svg width="24" height="24" viewBox="0 0 24 24" fill="none" xmlns="http://www.w3.org/2000/svg">
<rect x="5" y="6" width="14" height="13" fill="#C8FE9A"/>
<path d="M12 1.75C6.44093 1.75 1.75 6.44093 1.75 12C1.75 17.5591 6.44093 22.25 12 22.25C17.5591 22.25 22.25 17.5591 22.25 12C22.25 6.44093 17.5591 1.75 12 1.75ZM12 7.25C13.589 7.25 14.75 8.41013 14.75 10C14.75 11.5899 13.589 12.75 12 12.75C10.412 12.75 9.25 11.5898 9.25 10C9.25 8.41018 10.412 7.25 12 7.25ZM12 18.75C10.1308 18.75 8.44141 17.9825 7.21769 16.7479C8.08106 15.5837 9.44769 14.822 11 14.822H13C14.5532 14.822 15.919 15.5837 16.7823 16.7479C15.5586 17.9825 13.8692 18.75 12 18.75Z" fill="#0F0145" stroke="#E5E5E5" stroke-width="0.5"/>
</svg>
