<svg width="23" height="26" viewBox="0 0 23 26" fill="none" xmlns="http://www.w3.org/2000/svg">
<g clip-path="url(#clip0)">
<path d="M6.07912 22.3044L6.45512 22.5076C8.02199 23.5231 9.77673 23.997 11.5316 23.997C17.0466 23.997 21.5589 19.1224 21.5589 13.1645C21.5589 10.321 20.4935 7.54518 18.6134 5.51405C16.7332 3.48293 14.2263 2.33202 11.5316 2.33202C6.0165 2.33202 1.5041 7.20664 1.56681 13.2323C1.56681 15.2633 2.13085 17.2268 3.07088 18.9193L3.32155 19.3255L2.31889 23.3201L6.07912 22.3044Z" fill="#00E676"/>
<path d="M19.6787 4.43079C17.5479 2.06123 14.6024 0.774826 11.5942 0.774826C5.20177 0.774826 0.0627109 6.39417 0.125332 13.2322C0.125332 15.3987 0.689371 17.4976 1.6295 19.3932L0 25.825L6.0791 24.1324C7.77121 25.148 9.65129 25.622 11.5315 25.622C17.8613 25.622 23.0004 20.0025 23.0004 13.1646C23.0004 9.8471 21.8096 6.73271 19.6788 4.43079H19.6787ZM11.5942 23.5232C9.90204 23.5232 8.20992 23.0494 6.76847 22.1015L6.39247 21.8984L2.75757 22.9139L3.69761 19.0549L3.44695 18.6486C0.689371 13.8417 2.00549 7.47743 6.5178 4.49844C11.0301 1.51955 16.8586 2.94135 19.6161 7.81597C22.3736 12.6906 21.0575 18.987 16.5453 21.966C15.1037 22.9815 13.349 23.5231 11.5942 23.5231V23.5232ZM17.1092 16.0082L16.4198 15.6697C16.4198 15.6697 15.4172 15.1957 14.7904 14.8572C14.7277 14.8572 14.6651 14.7895 14.6024 14.7895C14.4144 14.7895 14.289 14.8572 14.1637 14.925C14.1637 14.925 14.1011 14.9926 13.2237 16.0759C13.1609 16.2113 13.0356 16.279 12.9103 16.279H12.8476C12.7849 16.279 12.6596 16.2113 12.5969 16.1436L12.2835 16.0082C11.5942 15.6697 10.9675 15.2634 10.4661 14.7218C10.3407 14.5864 10.1527 14.451 10.0274 14.3156C9.58866 13.8417 9.14996 13.3 8.83667 12.6907L8.77396 12.5553C8.71134 12.4875 8.71134 12.4199 8.64863 12.2845C8.64863 12.1491 8.64863 12.0137 8.71134 11.946C8.71134 11.946 8.962 11.6074 9.14996 11.4044C9.27538 11.2689 9.338 11.0658 9.46333 10.9305C9.58866 10.7273 9.65137 10.4565 9.58866 10.2534C9.52604 9.91484 8.77396 8.08686 8.58601 7.68067C8.46059 7.47753 8.33534 7.40988 8.1473 7.34213H7.45793C7.33251 7.34213 7.20727 7.40988 7.08184 7.40988L7.01913 7.47753C6.8938 7.54528 6.76847 7.68067 6.64314 7.74832C6.5178 7.88381 6.45509 8.01911 6.32976 8.1546C5.89106 8.76393 5.64039 9.50866 5.64039 10.2534C5.64039 10.795 5.76572 11.3366 5.95377 11.8106L6.01648 12.0137C6.58052 13.3 7.33251 14.451 8.33534 15.4665L8.58601 15.7373C8.77396 15.9405 8.962 16.0759 9.08734 16.2789C10.4035 17.4977 11.9075 18.3778 13.5996 18.8517C13.7877 18.9194 14.0384 18.9194 14.2264 18.9871H14.8531C15.1664 18.9871 15.5424 18.8517 15.7932 18.7163C15.9811 18.5809 16.1065 18.5809 16.2318 18.4455L16.3572 18.31C16.4826 18.1746 16.6079 18.107 16.7332 17.9716C16.8586 17.8362 16.9839 17.7008 17.0466 17.5653C17.1719 17.2945 17.2345 16.956 17.2973 16.6175V16.1436C17.2973 16.1436 17.2345 16.0759 17.1092 16.0082Z" fill="#E5E5E5"/>
</g>
<defs>
<clipPath id="clip0">
<rect width="23" height="25.1379" fill="white" transform="translate(0 0.774826)"/>
</clipPath>
</defs>
</svg>
