<svg width="131" height="131" viewBox="0 0 131 131" fill="none" xmlns="http://www.w3.org/2000/svg">
<path d="M21.8333 114.625C22.2684 114.678 22.7082 114.678 23.1433 114.625L44.9767 109.167C45.9452 108.936 46.8324 108.446 47.5421 107.748L114.625 40.4463C116.658 38.4009 117.799 35.6341 117.799 32.7501C117.799 29.866 116.658 27.0992 114.625 25.0538L106.001 16.3751C104.987 15.3601 103.783 14.5549 102.458 14.0055C101.132 13.4561 99.7119 13.1733 98.2773 13.1733C96.8426 13.1733 95.4221 13.4561 94.0968 14.0055C92.7716 14.5549 91.5676 15.3601 90.5537 16.3751L23.4708 83.458C22.7655 84.1709 22.2577 85.055 21.9971 86.0234L16.5387 107.857C16.3426 108.563 16.2906 109.301 16.3861 110.028C16.4815 110.755 16.7223 111.455 17.0942 112.087C17.4661 112.718 17.9613 113.269 18.5505 113.705C19.1396 114.141 19.8106 114.454 20.5233 114.625C20.9584 114.678 21.3982 114.678 21.8333 114.625ZM98.25 24.0713L106.929 32.7501L98.25 41.4288L89.6258 32.7501L98.25 24.0713ZM32.2587 90.1171L81.875 40.4463L90.5537 49.1251L40.8829 98.7959L29.3658 101.634L32.2587 90.1171Z" fill="black"/>
</svg>
