<svg width="210" height="210" viewBox="0 0 210 210" fill="none" xmlns="http://www.w3.org/2000/svg">
<path d="M183.75 39.375H26.25C22.769 39.375 19.4306 40.7578 16.9692 43.2192C14.5078 45.6806 13.125 49.019 13.125 52.5V157.5C13.125 160.981 14.5078 164.319 16.9692 166.781C19.4306 169.242 22.769 170.625 26.25 170.625H183.75C187.231 170.625 190.569 169.242 193.031 166.781C195.492 164.319 196.875 160.981 196.875 157.5V52.5C196.875 49.019 195.492 45.6806 193.031 43.2192C190.569 40.7578 187.231 39.375 183.75 39.375V39.375ZM169.312 52.5L105 96.9937L40.6875 52.5H169.312ZM26.25 157.5V58.4719L101.259 110.381C102.358 111.143 103.663 111.552 105 111.552C106.337 111.552 107.642 111.143 108.741 110.381L183.75 58.4719V157.5H26.25Z" fill="black"/>
</svg>
