<svg width="16" height="22" viewBox="0 0 16 22" fill="none" xmlns="http://www.w3.org/2000/svg">
<g clip-path="url(#clip0_39:31)">
<path d="M7.17783 21.5561C1.12375 12.5052 0 11.5763 0 8.25C0 3.69364 3.58171 0 8 0C12.4183 0 16 3.69364 16 8.25C16 11.5763 14.8763 12.5052 8.82217 21.5561C8.42488 22.148 7.57508 22.1479 7.17783 21.5561Z" fill="#0F0145" fill-opacity="0.67"/>
<path d="M4.37335 3.06467C4.37335 2.94856 4.3284 2.8372 4.24839 2.75509C4.16837 2.67299 4.05985 2.62686 3.94669 2.62686C3.83353 2.62686 3.725 2.67299 3.64499 2.75509C3.56497 2.8372 3.52002 2.94856 3.52002 3.06467V5.69154C3.51992 6.19618 3.68974 6.68536 4.00074 7.07629C4.31174 7.46722 4.74482 7.73588 5.22669 7.83681V14.4478C5.22669 14.5639 5.27164 14.6752 5.35165 14.7573C5.43167 14.8394 5.54019 14.8856 5.65335 14.8856C5.76651 14.8856 5.87504 14.8394 5.95505 14.7573C6.03507 14.6752 6.08002 14.5639 6.08002 14.4478V7.83681C6.56188 7.73588 6.99496 7.46722 7.30596 7.07629C7.61697 6.68536 7.78679 6.19618 7.78669 5.69154V3.06467C7.78669 2.94856 7.74173 2.8372 7.66172 2.75509C7.5817 2.67299 7.47318 2.62686 7.36002 2.62686C7.24686 2.62686 7.13834 2.67299 7.05832 2.75509C6.97831 2.8372 6.93335 2.94856 6.93335 3.06467V5.69154C6.93349 5.96327 6.85149 6.22835 6.69866 6.45026C6.54583 6.67216 6.32969 6.83997 6.08002 6.93054V3.06467C6.08002 2.94856 6.03507 2.8372 5.95505 2.75509C5.87504 2.67299 5.76651 2.62686 5.65335 2.62686C5.54019 2.62686 5.43167 2.67299 5.35165 2.75509C5.27164 2.8372 5.22669 2.94856 5.22669 3.06467V6.93054C4.97702 6.83997 4.76088 6.67216 4.60804 6.45026C4.45521 6.22835 4.37321 5.96327 4.37335 5.69154V3.06467ZM10.3467 14.4478V8.75622H9.06669C8.95353 8.75622 8.845 8.71009 8.76499 8.62798C8.68497 8.54588 8.64002 8.43452 8.64002 8.3184V4.81592C8.64002 4.23538 8.91821 3.69249 9.29794 3.30197C9.67853 2.91231 10.2076 2.62686 10.7734 2.62686C10.8865 2.62686 10.995 2.67299 11.0751 2.75509C11.1551 2.8372 11.2 2.94856 11.2 3.06467V14.4478C11.2 14.5639 11.1551 14.6752 11.0751 14.7573C10.995 14.8394 10.8865 14.8856 10.7734 14.8856C10.6602 14.8856 10.5517 14.8394 10.4717 14.7573C10.3916 14.6752 10.3467 14.5639 10.3467 14.4478Z" fill="#C4C4C4"/>
</g>
<defs>
<clipPath id="clip0_39:31">
<rect width="16" height="22" fill="white"/>
</clipPath>
</defs>
</svg>
