<svg width="29" height="40" viewBox="0 0 29 40" fill="none" xmlns="http://www.w3.org/2000/svg">
<g clip-path="url(#clip0_414_97)">
<path d="M13.0098 39.1531C2.0368 22.7137 0 21.0265 0 14.9847C0 6.70887 6.49185 0 14.5 0C22.5082 0 29 6.70887 29 14.9847C29 21.0265 26.9632 22.7137 15.9902 39.1531C15.2701 40.2281 13.7298 40.228 13.0098 39.1531Z" fill="#0F0145"/>
<path d="M8.29087 6.1906C8.29087 5.97969 8.20939 5.77743 8.06436 5.6283C7.91934 5.47917 7.72264 5.39539 7.51754 5.39539C7.31243 5.39539 7.11573 5.47917 6.97071 5.6283C6.82568 5.77743 6.7442 5.97969 6.7442 6.1906V10.9619C6.74402 11.8785 7.05182 12.767 7.61551 13.477C8.1792 14.1871 8.96416 14.6751 9.83754 14.8584V26.866C9.83754 27.077 9.91901 27.2792 10.064 27.4283C10.2091 27.5775 10.4058 27.6613 10.6109 27.6613C10.816 27.6613 11.0127 27.5775 11.1577 27.4283C11.3027 27.2792 11.3842 27.077 11.3842 26.866V14.8584C12.2576 14.6751 13.0425 14.1871 13.6062 13.477C14.1699 12.767 14.4777 11.8785 14.4775 10.9619V6.1906C14.4775 5.97969 14.3961 5.77743 14.251 5.6283C14.106 5.47917 13.9093 5.39539 13.7042 5.39539C13.4991 5.39539 13.3024 5.47917 13.1574 5.6283C13.0123 5.77743 12.9309 5.97969 12.9309 6.1906V10.9619C12.9311 11.4554 12.7825 11.9369 12.5055 12.3399C12.2285 12.743 11.8367 13.0478 11.3842 13.2123V6.1906C11.3842 5.97969 11.3027 5.77743 11.1577 5.6283C11.0127 5.47917 10.816 5.39539 10.6109 5.39539C10.4058 5.39539 10.2091 5.47917 10.064 5.6283C9.91901 5.77743 9.83754 5.97969 9.83754 6.1906V13.2123C9.38502 13.0478 8.99325 12.743 8.71625 12.3399C8.43924 11.9369 8.29062 11.4554 8.29087 10.9619V6.1906ZM19.1175 26.866V16.5283H16.7975C16.5924 16.5283 16.3957 16.4445 16.2507 16.2954C16.1057 16.1463 16.0242 15.944 16.0242 15.7331V9.37143C16.0242 8.31699 16.5284 7.33093 17.2167 6.6216C17.9065 5.91386 18.8654 5.39539 19.8909 5.39539C20.096 5.39539 20.2927 5.47917 20.4377 5.6283C20.5827 5.77743 20.6642 5.97969 20.6642 6.1906V26.866C20.6642 27.077 20.5827 27.2792 20.4377 27.4283C20.2927 27.5775 20.096 27.6613 19.8909 27.6613C19.6858 27.6613 19.4891 27.5775 19.344 27.4283C19.199 27.2792 19.1175 27.077 19.1175 26.866Z" fill="#C8FE9A"/>
</g>
<defs>
<clipPath id="clip0_414_97">
<rect width="29" height="39.9593" fill="white"/>
</clipPath>
</defs>
</svg>
